<svg width="216" height="190" viewBox="0 0 216 190" fill="none" xmlns="http://www.w3.org/2000/svg">
<g clip-path="url(#clip0_345_130)">
<path d="M55.5234 137.386L65.844 128.767L72.0573 136.596L59.1603 145.387L55.5234 137.386Z" fill="#024B51"/>
<path d="M15.8767 189.306L67.6737 147.796C63.7008 134.56 54.4481 131.056 54.4481 131.056L1.7251 172.313C5.67559 174.654 11.9486 179.024 15.8767 189.306Z" fill="#0BCCDB"/>
<path d="M202.946 33.3979C184.516 -0.33542 137.401 -10.1408 97.7242 11.4832C58.0475 33.1071 40.8341 77.9806 59.2723 111.706C77.7029 145.44 124.825 155.253 164.502 133.621C204.171 112.005 221.392 67.1313 202.954 33.3979H202.946ZM158.049 122.533C124.228 140.966 84.3045 133.017 68.8684 104.772C53.4324 76.5266 68.3307 38.6996 102.145 20.267C135.967 1.84189 175.89 9.7831 191.326 38.021C206.762 66.2664 191.864 104.101 158.042 122.526L158.049 122.533Z" fill="#0BCCDB"/>
<path d="M105.259 29.4604C138.095 11.9823 177.1 19.9533 192.379 47.2741C192.902 48.2062 193.38 49.1457 193.835 50.0927C192.857 46.864 191.535 43.695 189.833 40.6527C174.553 13.3319 135.392 5.45038 102.369 23.0329C69.3464 40.6154 54.9634 77.0033 70.2426 104.324C70.5637 104.891 70.8997 105.435 71.2433 105.979C59.8399 79.3074 74.2304 45.9767 105.259 29.4604Z" fill="#024B51"/>
<path d="M212.617 56.5059C216.269 86.5855 198.264 119.514 165.57 137.335C126.042 158.877 79.5325 150.473 59.4216 118.895C60.2804 120.923 61.1019 123.003 62.3042 124.897C83.9684 158.81 129.022 169.45 169.206 147.55C205.455 127.79 224.14 90.7612 212.617 56.5059Z" fill="#024B51"/>
<path d="M0 173.178C0 173.178 10.9105 179.836 13.7259 190.007C13.7259 190.007 4.92131 188.658 0 173.178Z" fill="#024B51"/>
</g>
<defs>
<clipPath id="clip0_345_130">
<rect width="216" height="190" fill="white"/>
</clipPath>
</defs>
</svg>
