<svg xmlns="http://www.w3.org/2000/svg" version="1.1" xmlns:xlink="http://www.w3.org/1999/xlink" xmlns:svgjs="http://svgjs.dev/svgjs" width="63" height="63"><svg width="63" height="63" viewBox="0 0 63 63" fill="none" xmlns="http://www.w3.org/2000/svg">
<g clip-path="url(#clip0_320_502)">
<path d="M36.1382 1.99904L38.7261 3.86758C40.3506 5.04085 42.2714 5.73611 44.2763 5.87889L47.4629 6.10237C50.8709 6.34137 53.7395 8.73757 54.5689 12.037L55.3453 15.1222C55.8317 17.0591 56.8544 18.8252 58.2981 20.2126L60.5961 22.4257C63.0531 24.7908 63.7016 28.4596 62.2081 31.52L60.8081 34.3818C59.9288 36.179 59.5734 38.1841 59.7823 40.1706L60.1128 43.3334C60.4682 46.7166 58.5943 49.9447 55.4763 51.329L52.5578 52.6264C50.7244 53.4396 49.1591 54.7495 48.0335 56.4038L46.2437 59.039C44.3293 61.8574 40.8121 63.1331 37.5288 62.1957L34.4544 61.3204C32.5244 60.771 30.4789 60.771 28.5489 61.3204L25.4745 62.1957C22.1881 63.13 18.6709 61.8574 16.7595 59.039L14.9698 56.4038C13.8473 54.7495 12.2789 53.4396 10.4455 52.6264L7.52703 51.329C4.40587 49.9416 2.53505 46.7166 2.89051 43.3334L3.22102 40.1706C3.42993 38.1841 3.07447 36.179 2.19518 34.3818L0.795183 31.52C-0.701477 28.4627 -0.0498063 24.7908 2.40721 22.4257L4.7052 20.2126C6.14886 18.8252 7.17158 17.0591 7.65799 15.1222L8.43438 12.037C9.26378 8.73757 12.1324 6.34137 15.5404 6.10237L18.727 5.87889C20.7288 5.73922 22.6495 5.04085 24.2771 3.86758L26.8651 1.99904C29.6308 0.00324857 33.3756 0.00324857 36.1413 1.99904H36.1382Z" fill="#00A2BA"></path>
<path d="M16.5752 32.6904C16.5752 24.223 23.095 17.6521 31.3578 17.6521C39.6206 17.6521 45.4919 22.9349 46.4242 30.5953H38.3235C37.7155 26.9668 35.0028 24.4651 31.4389 24.4651C27.1454 24.4651 24.4327 27.7707 24.4327 32.6904C24.4327 37.61 27.1454 40.9964 31.4389 40.9964C34.9623 40.9964 37.675 38.4978 38.3235 34.8259H46.4242C45.4514 42.5669 39.3369 47.8094 31.3578 47.8094C23.3788 47.8094 16.5752 41.1981 16.5752 32.6904Z" fill="white"></path>
</g>
<defs>
<clipPath id="SvgjsClipPath1009">
<rect width="63" height="62" fill="white" transform="translate(0 0.5)"></rect>
</clipPath>
</defs>
</svg><style>@media (prefers-color-scheme: light) { :root { filter: none; } }
@media (prefers-color-scheme: dark) { :root { filter: none; } }
</style></svg>