<svg width="383" height="288" viewBox="0 0 383 288" fill="none" xmlns="http://www.w3.org/2000/svg">
<g clip-path="url(#clip0_338_141)">
<path d="M52.939 51.2302L359.755 173.525C365.99 176.012 370.612 182.571 372.131 192.632L65.3145 70.3373C63.7885 60.277 59.1744 53.7172 52.939 51.2302Z" fill="#00A2BA"/>
<path d="M351.574 205.775C351.843 207.584 351.904 209.535 351.734 211.527C351.059 220.168 346.519 229.621 340.17 234.664C335.163 238.64 330.239 239.664 326.32 238.104L19.5119 115.808C23.4371 117.359 28.3626 116.342 33.3619 112.368C41.1518 106.186 46.2188 93.3134 44.7593 83.4881C44.2058 79.762 42.459 77.3036 40.1278 76.3857L323.762 189.42L346.943 198.673C349.275 199.599 351.021 202.049 351.574 205.775Z" fill="#0BCCDB"/>
<path d="M351.574 205.775C351.843 207.584 351.904 209.535 351.734 211.527L314.477 196.804L323.762 189.42L346.943 198.673C349.275 199.599 351.021 202.049 351.574 205.775Z" fill="#00A2BA"/>
<path d="M334.523 222L27.7072 99.7054C29.0754 100.253 30.8062 99.8929 32.5643 98.4941C35.1348 96.453 36.8434 92.1697 36.3488 88.8932C36.1788 87.7491 35.6489 86.9982 34.9271 86.7104L341.743 209.005C342.465 209.293 342.987 210.045 343.165 211.188C343.658 214.457 341.95 218.74 339.38 220.789C337.622 222.188 335.891 222.548 334.523 222Z" fill="#0BCCDB"/>
<path d="M339.133 209.662L32.3166 87.367L31.6257 82.7686L338.442 205.064L339.133 209.662Z" fill="#00A2BA"/>
<path d="M37.0451 81.4103L343.861 203.705C342.334 203.095 340.405 203.508 338.442 205.063L31.6256 82.7684C33.5882 81.2048 35.5175 80.7997 37.0451 81.4103Z" fill="#0BCCDB"/>
<path d="M349.041 193.399C345.908 192.134 341.94 192.953 337.915 196.15C332.493 200.416 328.635 208.614 328.053 215.969C327.903 217.667 327.967 219.269 328.195 220.799C328.707 224.247 330.311 226.49 332.394 227.334L293.099 211.696L25.586 105.038C23.5026 104.194 21.8984 101.951 21.3862 98.5032C20.1529 90.2008 24.5044 79.1014 31.1068 73.8542C35.132 70.6568 39.1077 69.8371 42.2327 71.1032L349.041 193.399Z" fill="#0BCCDB"/>
<path d="M332.394 227.334L293.099 211.696L301.089 205.319L328.055 215.977C327.904 217.674 327.968 219.277 328.196 220.807C328.708 224.255 330.312 226.498 332.395 227.342L332.394 227.334Z" fill="#00A2BA"/>
<path d="M361.858 168.227C354.753 165.419 345.79 167.264 336.658 174.507C323.815 184.726 314.784 204.714 314.572 221.946C314.485 224.44 314.675 226.892 315.02 229.211C316.198 236.771 319.636 241.633 324.346 243.47L17.539 121.182C12.8292 119.345 9.39107 114.483 8.21279 106.923C7.91078 104.89 7.77871 102.832 7.80855 100.694C7.57581 83.2358 16.7393 62.5963 29.8508 52.2183C38.9831 44.9755 47.9374 43.1239 55.0505 45.9388L361.859 168.235L361.858 168.227Z" fill="#0BCCDB"/>
<path d="M336.65 174.508C354.771 160.115 372.334 166.948 375.789 189.726L372.131 192.632C369.067 172.379 353.456 166.307 337.349 179.105C324.666 189.182 316.286 210.361 318.702 226.31C320.6 238.82 330.244 242.57 340.195 234.669C347.969 228.489 353.062 215.581 351.579 205.806C350.436 198.273 344.637 196.013 338.642 200.775C334.03 204.439 330.985 212.105 331.861 217.9C332.523 222.25 335.892 223.559 339.388 220.788C341.959 218.747 343.675 214.462 343.173 211.187C342.828 208.868 341.018 208.165 339.14 209.661L338.442 205.063C342.325 201.974 346.089 203.398 346.823 208.282C347.699 214.078 344.654 221.744 340.085 225.425C334.577 229.751 329.247 227.722 328.203 220.806C326.944 212.484 331.313 201.398 337.937 196.139C345.952 189.821 353.711 192.84 355.237 202.9C357.104 215.201 350.673 231.492 340.893 239.266C334.898 244.028 329.033 245.255 324.33 243.465C319.663 241.653 316.187 236.749 315.052 229.215C312.252 210.739 321.97 186.178 336.658 174.507L336.65 174.508Z" fill="#024B51"/>
<path d="M219.618 111.548C212.513 108.74 203.55 110.585 194.418 117.827C181.467 128.118 172.37 148.408 172.346 165.731L150.045 156.923C149.999 139.556 159.15 119.203 172.101 108.912C181.233 101.669 190.187 99.8176 197.3 102.632L219.619 111.556L219.618 111.548Z" fill="#ED484F"/>
<path d="M154.188 92.9186L152.988 84.6823C153.642 89.1914 159.789 97.8859 172.193 104.007L173.393 112.244C160.987 106.114 154.842 97.4277 154.188 92.9186Z" fill="#E50000"/>
<path d="M186.001 84.2345L187.201 92.4708C188.271 99.8336 186.402 110.319 185.527 114.629L184.327 106.393C185.21 102.082 187.079 91.5961 186.001 84.2345Z" fill="#E50000"/>
<path d="M181.892 108.335L183.091 116.571C166.526 116.345 131.56 126.027 129.717 126.538L128.518 118.301C130.36 117.791 165.327 108.117 181.892 108.335Z" fill="#E50000"/>
<path d="M128.525 118.3L129.725 126.537L124.196 117.964L122.995 109.72L128.525 118.3Z" fill="#E50000"/>
<path d="M184.589 116.238L185.789 124.474C185.341 121.404 184.51 118.628 183.1 116.577L181.9 108.341C183.31 110.391 184.142 113.175 184.589 116.238Z" fill="#E50000"/>
<path d="M239.938 104.31L241.138 112.547C241.756 116.816 239.382 121.506 235.94 122.997C231.391 125.008 210.948 125.627 193.582 120.227L192.382 111.991C209.74 117.385 230.183 116.766 234.74 114.761C238.182 113.27 240.556 108.58 239.938 104.31Z" fill="#E50000"/>
<path d="M200.994 128.244L202.194 136.48C202.719 140.068 202.397 144.011 200.657 148.188L199.457 139.952C201.197 135.775 201.519 131.832 200.994 128.244Z" fill="#E50000"/>
<path d="M234.718 97.6586C243.13 101.402 240.347 112.324 234.74 114.761C230.184 116.773 209.749 117.391 192.383 111.991C197.093 116.964 204.683 127.403 199.456 139.944L183.254 139.933C183.486 138.785 187.871 117.014 181.892 108.334C165.326 108.109 130.361 117.791 128.518 118.301L122.988 109.721C142.214 102.717 162.302 103.217 172.186 104.008C157.318 96.6648 151.441 85.639 153.23 82.5368C155.441 78.7636 172.784 73.5958 181.743 76.721C189.166 79.6558 185.635 99.9407 184.319 106.394C194.643 103.501 227.414 94.7774 234.718 97.6586Z" fill="#ED484F"/>
<path d="M199.456 139.944L200.657 148.188L184.455 148.178L183.254 139.934L199.456 139.944Z" fill="#E50000"/>
<path d="M181.99 186.753L159.788 177.867C155.07 176.032 151.64 171.169 150.462 163.609C150.142 161.46 149.977 159.177 150.044 156.916L172.345 165.723C172.286 168.039 172.452 170.321 172.779 172.525C173.949 180.03 177.316 184.84 181.989 186.745L181.99 186.753Z" fill="#E50000"/>
<path d="M159.788 177.868L17.539 121.182C12.8292 119.345 9.39105 114.483 8.21277 106.923C7.91076 104.89 7.77869 102.832 7.80853 100.694L150.044 156.916C149.977 159.177 150.142 161.46 150.462 163.609C151.64 171.169 155.078 176.031 159.788 177.868Z" fill="#00A2BA"/>
<path d="M324.355 243.477L181.99 186.753C177.325 184.846 173.958 180.037 172.78 172.532C172.453 170.329 172.287 168.046 172.346 165.731L314.581 221.952C314.494 224.446 314.684 226.899 315.029 229.218C316.207 236.778 319.645 241.64 324.355 243.477Z" fill="#00A2BA"/>
</g>
<defs>
<clipPath id="clip0_338_141">
<rect width="351.419" height="238.965" fill="white" transform="translate(0 51.6355) rotate(-8.44931)"/>
</clipPath>
</defs>
</svg>
