<svg width="196" height="63" viewBox="0 0 196 63" fill="none" xmlns="http://www.w3.org/2000/svg">
<path d="M90.8728 45.5276C83.7673 45.5276 78.2096 39.7588 78.2096 32.3368C78.2096 24.9499 83.7673 19.2163 90.8728 19.2163C97.521 19.2163 102.727 23.6484 103.606 30.1207H97.9431C97.3451 26.4976 94.5311 24.0002 90.9432 24.0002C86.6166 24.0002 83.697 27.4122 83.697 32.3368C83.697 37.2965 86.6166 40.7438 90.9432 40.7438C94.5311 40.7438 97.3099 38.2111 97.9431 34.588H103.606C102.727 41.1307 97.521 45.5276 90.8728 45.5276ZM115.078 45.3166C109.45 45.3166 105.686 41.4121 105.686 35.5378C105.686 29.9449 109.591 25.8645 115.008 25.8645C120.953 25.8645 124.892 30.6835 124.013 36.8041H110.681C110.998 39.8644 112.475 41.5528 114.973 41.5528C117.118 41.5528 118.561 40.4975 119.123 38.6332H123.978C122.922 42.8895 119.651 45.3166 115.078 45.3166ZM114.902 29.4524C112.616 29.4524 111.174 30.9298 110.752 33.7086H118.842C118.701 31.1056 117.224 29.4524 114.902 29.4524ZM132.177 35.8895V45H127.288V26.2162H131.79V29.8393C133.162 27.4474 136.082 26.0052 139.107 26.0052V31.0705C134.956 30.7539 132.177 31.7388 132.177 35.8895ZM154.527 40.2513V44.5075C153.331 45.1055 152.206 45.3518 150.763 45.3518C146.894 45.3518 144.467 43.1357 144.467 38.9146V30.4021H140.668V26.2162H144.467V20.6585H149.321V26.2162H154.703V30.4021H149.321V37.789C149.321 39.9699 150.306 40.8493 152.065 40.8493C152.979 40.8493 153.824 40.6382 154.527 40.2513ZM177.696 21.8545C177.696 23.5077 176.359 24.7389 174.425 24.7389C172.49 24.7389 171.153 23.5077 171.153 21.8545C171.153 20.1309 172.49 18.8997 174.425 18.8997C176.359 18.8997 177.696 20.1309 177.696 21.8545ZM164.646 45H159.792V30.4021H155.993V26.2162H159.792V25.1962C159.792 21.4675 161.797 19.357 165.701 19.357C166.897 19.357 167.917 19.5681 168.726 19.9198V23.7891C168.199 23.5781 167.495 23.4725 166.862 23.4725C165.525 23.4725 164.646 24.0002 164.646 25.3017V26.2162H169.535V30.4021H164.646V45ZM176.887 45H172.033V26.2162H176.887V45ZM186.212 45H181.288V19.7439H186.212V45ZM195.522 45H190.597V19.7439H195.522V45Z" fill="white"/>
<g clip-path="url(#clip0_0_1)">
<path d="M36.1382 1.9988L38.7261 3.86733C40.3506 5.0406 42.2714 5.73587 44.2763 5.87865L47.4629 6.10213C50.8709 6.34113 53.7395 8.73732 54.5689 12.0367L55.3453 15.122C55.8317 17.0588 56.8544 18.8249 58.2981 20.2124L60.5961 22.4254C63.0531 24.7906 63.7016 28.4594 62.2081 31.5198L60.8081 34.3816C59.9288 36.1787 59.5734 38.1838 59.7823 40.1703L60.1128 43.3332C60.4682 46.7164 58.5943 49.9444 55.4763 51.3288L52.5578 52.6262C50.7244 53.4394 49.1591 54.7492 48.0335 56.4036L46.2437 59.0388C44.3293 61.8571 40.8121 63.1328 37.5288 62.1954L34.4544 61.3201C32.5244 60.7708 30.4789 60.7708 28.5489 61.3201L25.4745 62.1954C22.1881 63.1297 18.6709 61.8571 16.7595 59.0388L14.9698 56.4036C13.8473 54.7492 12.2789 53.4394 10.4455 52.6262L7.52703 51.3288C4.40587 49.9413 2.53505 46.7164 2.89051 43.3332L3.22102 40.1703C3.42993 38.1838 3.07447 36.1787 2.19518 34.3816L0.795183 31.5198C-0.701477 28.4625 -0.0498063 24.7906 2.40721 22.4254L4.7052 20.2124C6.14886 18.8249 7.17158 17.0588 7.65799 15.122L8.43438 12.0367C9.26378 8.73732 12.1324 6.34113 15.5404 6.10213L18.727 5.87865C20.7288 5.73897 22.6495 5.0406 24.2771 3.86733L26.8651 1.9988C29.6308 0.00300443 33.3756 0.00300443 36.1413 1.9988H36.1382Z" fill="#00A2BA"/>
<path d="M16.5757 32.6902C16.5757 24.2228 23.0955 17.6519 31.3583 17.6519C39.6211 17.6519 45.4924 22.9347 46.4247 30.595H38.324C37.716 26.9666 35.0033 24.4649 31.4394 24.4649C27.1458 24.4649 24.4331 27.7705 24.4331 32.6902C24.4331 37.6098 27.1458 40.9961 31.4394 40.9961C34.9628 40.9961 37.6755 38.4975 38.324 34.8256H46.4247C45.4519 42.5667 39.3374 47.8092 31.3583 47.8092C23.3792 47.8092 16.5757 41.1979 16.5757 32.6902Z" fill="white"/>
</g>
<defs>
<clipPath id="clip0_0_1">
<rect width="63" height="62" fill="white" transform="translate(0 0.5)"/>
</clipPath>
</defs>
</svg>
