<svg width="82" height="21" viewBox="0 0 82 21" fill="none" xmlns="http://www.w3.org/2000/svg">
<path d="M0.229492 16.7577L1.51032 3.76616L5.51457 3.75537L5.32312 5.73728L7.36435 5.74807L7.06504 8.75193L5.01303 8.76272L4.51148 13.7674H6.51227L6.23183 16.7712L0.229492 16.7577Z" fill="white"/>
<path d="M7.35596 16.7791L8.64757 3.7579L7.63639 3.74711L7.92761 0.783691H12.9511L12.4496 5.76946L18.4546 5.75867L16.9446 20.7942H12.9403L14.1618 8.75176H12.0991L11.309 16.7791H7.35596Z" fill="white"/>
<path d="M29.5158 5.76685L28.4156 16.7684L24.4222 16.7792L25.223 8.76263H23.2007L22.4106 16.7711L18.4468 16.7604L19.5388 5.76954H29.5158V5.76685Z" fill="white"/>
<path d="M29.5186 16.7791L30.8102 3.7579L29.799 3.74711L30.0902 0.783691H35.1137L34.2131 9.81147L36.6049 5.76676L40.6172 5.75598L38.1742 9.77102L40.2154 9.76023L39.1045 20.7915H35.1002L35.9119 12.783H33.8599L33.4689 16.7765H29.5186V16.7791Z" fill="white"/>
<path d="M40.6094 16.7577L41.8902 3.76616L45.8945 3.75537L45.703 5.73728L47.7442 5.74807L47.4449 8.75193L45.3929 8.76272L44.8914 13.7674H46.8922L46.6117 16.7712L40.6094 16.7577Z" fill="white"/>
<path d="M58.8049 5.76686L58.5056 8.77882L57.0738 12.7831L53.0803 12.7723L54.5122 8.75725H52.5006L51.999 13.7511H58.0041L57.694 16.7631L47.7144 16.7523L48.8064 5.76147H58.8049V5.76686Z" fill="white"/>
<path d="M69.9252 5.76685L69.5261 9.74145L65.4814 9.73066L65.5812 8.75993H63.5885L63.0869 13.7538L65.0877 13.7646L65.1983 12.7534L69.2214 12.7426L68.8008 16.7658L58.8022 16.755L59.8943 5.76416H69.9252V5.76685Z" fill="white"/>
<path d="M69.936 16.7791L71.2276 3.7579L70.2165 3.74711L70.5077 0.783691H75.5312L75.0297 5.76946L81.0347 5.75867L79.5247 20.7942H75.5204L76.7419 8.75176H74.6791L73.8891 16.7791H69.936Z" fill="white"/>
<path d="M23.9477 1.27979L23.6403 4.35106H19.7412L20.0459 1.27979H23.9477Z" fill="white"/>
</svg>
