<svg width="443" height="345" viewBox="0 0 443 345" fill="none" xmlns="http://www.w3.org/2000/svg">
<g clip-path="url(#clip0_25_407)">
<path d="M403.425 -1.28192e-05L0 53.5166L35.5223 321.295L438.947 267.778L403.425 -1.28192e-05Z" fill="#9FC4C5"/>
<path d="M46.355 275.895L22.295 94.5225C36.9795 92.5745 47.3032 79.0766 45.353 64.3751L362.472 22.3075C364.422 37.009 377.908 47.3484 392.593 45.4004L416.653 226.773C401.968 228.721 391.645 242.219 393.595 256.92L76.4756 298.988C74.5254 284.286 61.0395 273.947 46.355 275.895Z" fill="white"/>
<path d="M314.711 59.3321L101.114 87.667L102.026 94.5411L315.623 66.2062L314.711 59.3321Z" fill="#9FC4C5"/>
<path d="M360.572 90.9202L65.0762 130.119L65.9881 136.993L361.484 97.7943L360.572 90.9202Z" fill="#9FC4C5"/>
<path d="M364.115 117.631L68.6196 156.83L69.5315 163.704L365.027 124.505L364.115 117.631Z" fill="#9FC4C5"/>
<path d="M367.383 142.267L71.8877 181.466L72.7996 188.34L368.295 149.141L367.383 142.267Z" fill="#9FC4C5"/>
<path d="M168.28 223.356L91.1938 233.582L92.1057 240.456L169.192 230.23L168.28 223.356Z" fill="#9FC4C5"/>
<path d="M350.481 239.098C348.163 253.832 337.775 262.46 326.808 258.766L347.863 303.664L353.253 280.085L371.542 284.012L350.481 239.098Z" fill="#F15F4B"/>
<path d="M313.072 260.277C307.386 258.117 302.656 253.027 299.604 246.543L293.027 295.426L309.224 285.595L321.329 306.177L327.761 258.37C323.516 261.412 318.344 262.278 313.072 260.275L313.072 260.277Z" fill="#F15F4B"/>
<path d="M331.191 268.111C341.272 266.525 350.59 261.855 357.883 254.88L350.482 239.097C348.164 253.83 337.776 262.459 326.809 258.764L331.193 268.111L331.191 268.111Z" fill="#DD5745"/>
<path d="M313.072 260.276C307.385 258.116 302.656 253.027 299.604 246.543L297.159 264.716C300.16 266.116 303.345 267.236 306.69 268.034C313.349 269.624 320.014 269.794 326.367 268.738L327.762 258.37C323.517 261.412 318.345 262.278 313.073 260.275L313.072 260.276Z" fill="#DD5745"/>
<path d="M355.413 245.733C370.028 226.624 366.399 199.268 347.308 184.631C328.216 169.993 300.891 173.618 286.276 192.727C271.661 211.835 275.29 239.192 294.382 253.829C313.473 268.466 340.798 264.841 355.413 245.733Z" fill="#FFC728"/>
<path d="M358.024 224.224C357.243 224.759 356.686 225.279 356.242 225.93C356.478 224.372 356.612 222.739 356.643 221.034C358.485 220.994 359.739 220.404 361.061 218.97C362.205 217.73 362.679 216.679 362.881 214.937C360.923 214.996 359.667 215.571 358.291 217.038C357.44 217.946 356.95 218.745 356.649 219.795C356.629 218.17 356.517 216.479 356.303 214.723C356.283 214.559 356.26 214.397 356.238 214.235C358.077 213.792 359.205 212.933 360.23 211.204C361.103 209.731 361.361 208.594 361.22 206.837C359.324 207.331 358.212 208.174 357.155 209.921C356.47 211.053 356.15 211.98 356.08 213.153C355.764 211.206 355.311 209.342 354.729 207.567C356.36 206.73 357.264 205.642 357.911 203.761C358.476 202.119 358.507 200.946 358.027 199.254C356.276 200.161 355.356 201.237 354.666 203.186C354.29 204.247 354.138 205.109 354.191 206.047C353.56 204.383 352.812 202.804 351.958 201.317C353.306 200.159 353.947 198.906 354.205 196.969C354.436 195.231 354.238 194.071 353.442 192.516C351.912 193.798 351.225 195.058 350.932 197.126C350.794 198.096 350.788 198.884 350.939 199.665C350.041 198.303 349.047 197.027 347.966 195.847C349.028 194.427 349.399 193.064 349.275 191.125C349.164 189.367 348.745 188.273 347.668 186.922C346.424 188.52 346.001 189.913 346.117 192.009C346.169 192.968 346.312 193.73 346.597 194.449C345.461 193.36 344.242 192.366 342.952 191.471C343.735 189.815 343.839 188.381 343.336 186.483C342.886 184.783 342.265 183.801 340.954 182.716C340.054 184.562 339.91 186.022 340.431 188.055C340.691 189.072 341.009 189.832 341.493 190.52C340.136 189.691 338.707 188.964 337.214 188.348C337.692 186.492 337.526 185.036 336.649 183.246C335.88 181.675 335.085 180.849 333.596 180.075C333.078 182.087 333.223 183.555 334.124 185.436C334.632 186.495 335.146 187.218 335.872 187.829C334.322 187.27 332.709 186.825 331.043 186.5C331.161 184.541 330.721 183.136 329.506 181.557C328.453 180.187 327.517 179.552 325.915 179.123C325.801 181.215 326.227 182.624 327.471 184.269C328.191 185.221 328.848 185.825 329.706 186.266C329.17 186.183 328.629 186.111 328.082 186.052L326.852 186.512C327.709 186.602 328.557 186.728 329.395 186.883C328.146 187.295 327.229 188.048 326.34 189.334C325.372 190.739 325.04 191.852 325.067 193.61C326.993 193.259 328.159 192.503 329.327 190.842C330.201 189.599 330.573 188.593 330.663 187.144C332.17 187.485 333.639 187.929 335.064 188.469C333.957 188.664 333.022 189.184 332.028 190.12C330.805 191.271 330.264 192.28 329.949 194.001C331.908 194.089 333.2 193.611 334.67 192.252C335.723 191.279 336.283 190.414 336.653 189.12C338.025 189.727 339.349 190.426 340.616 191.213C339.549 191.188 338.57 191.491 337.464 192.15C336.039 192.998 335.31 193.862 334.667 195.47C336.574 195.991 337.935 195.813 339.642 194.815C340.852 194.109 341.566 193.401 342.176 192.247C343.417 193.122 344.593 194.085 345.698 195.132C344.649 194.865 343.626 194.942 342.405 195.338C340.841 195.847 339.957 196.527 339.014 197.95C340.785 198.884 342.156 199.013 344.026 198.421C345.357 198.001 346.199 197.466 347.026 196.467C348.084 197.597 349.062 198.809 349.953 200.097C348.964 199.587 347.932 199.427 346.638 199.545C345.004 199.695 344.003 200.16 342.799 201.336C344.358 202.639 345.68 203.07 347.632 202.911C349.026 202.797 349.959 202.46 350.969 201.665C351.772 202.988 352.487 204.382 353.101 205.843C352.234 205.139 351.259 204.758 349.979 204.587C348.344 204.369 347.272 204.6 345.862 205.476C347.141 207.094 348.354 207.808 350.301 208.087C351.68 208.285 352.657 208.169 353.791 207.632C354.291 209.053 354.702 210.528 355.015 212.055C354.316 211.234 353.454 210.678 352.28 210.243C350.718 209.666 349.621 209.653 348.065 210.194C349.005 212.054 350.059 213.019 351.916 213.726C353.21 214.217 354.179 214.327 355.367 214.073C355.402 214.321 355.435 214.57 355.466 214.82C355.626 216.136 355.728 217.409 355.776 218.643C355.249 217.688 354.511 216.953 353.442 216.269C352.019 215.357 350.945 215.101 349.312 215.282C349.875 217.302 350.721 218.479 352.408 219.58C353.605 220.361 354.55 220.68 355.802 220.687C355.782 222.471 355.641 224.167 355.388 225.775C355.096 224.477 354.483 223.453 353.411 222.396C352.191 221.192 351.185 220.703 349.548 220.514C349.707 222.609 350.311 223.944 351.753 225.393C352.844 226.487 353.754 227.007 355.114 227.278C354.722 229.162 354.17 230.918 353.475 232.556C353.53 231.02 353.134 229.773 352.191 228.359C351.227 226.914 350.335 226.211 348.762 225.666C348.512 227.743 348.845 229.176 349.981 230.91C350.864 232.258 351.677 232.969 353.028 233.546C352.27 235.144 351.37 236.622 350.342 237.984C350.61 236.617 350.444 235.382 349.834 233.898C349.168 232.276 348.427 231.393 346.99 230.511C346.34 232.478 346.389 233.95 347.169 235.891C347.75 237.339 348.382 238.204 349.506 239.033C348.557 240.163 347.517 241.207 346.394 242.168C346.693 241.127 346.698 240.063 346.444 238.771C346.105 237.04 345.549 236.017 344.309 234.836C343.29 236.607 343.052 238.053 343.44 240.118C343.701 241.509 344.094 242.443 344.862 243.39C343.564 244.356 342.175 245.226 340.71 246.005C341.234 245.037 341.458 243.982 341.461 242.63C341.464 240.87 341.116 239.748 340.128 238.323C338.782 239.821 338.269 241.177 338.249 243.274C338.235 244.713 338.448 245.721 339.039 246.839C337.189 247.702 335.231 248.433 333.193 249.038C334.634 248.012 335.375 246.824 335.791 244.921C336.163 243.214 336.059 242.041 335.393 240.419C333.762 241.55 332.974 242.743 332.513 244.771C332.136 246.432 332.205 247.58 332.779 249.16C332.683 249.188 332.585 249.214 332.488 249.241C332.474 249.242 332.46 249.244 332.444 249.246C332.445 249.249 332.445 249.25 332.445 249.253C331.33 249.565 330.193 249.84 329.036 250.079C327.789 250.336 326.675 250.848 325.653 251.518C324.498 251.143 323.3 250.942 322.037 251.018C320.857 251.089 319.688 251.119 318.53 251.11C318.53 251.107 318.529 251.106 318.529 251.103C318.514 251.105 318.501 251.107 318.487 251.109C318.386 251.109 318.285 251.108 318.185 251.107C318.329 249.433 318.095 248.307 317.297 246.8C316.324 244.961 315.252 244.016 313.383 243.35C313.162 245.089 313.367 246.247 314.172 247.799C315.069 249.529 316.095 250.482 317.754 251.096C315.628 251.044 313.548 250.851 311.536 250.498C311.817 249.266 311.759 248.236 311.37 246.851C310.803 244.831 309.954 243.656 308.264 242.558C307.682 244.193 307.639 245.366 308.101 247.065C308.455 248.37 308.947 249.33 309.706 250.128C308.088 249.758 306.52 249.28 305.016 248.685C305.508 247.571 305.645 246.565 305.534 245.154C305.369 243.06 304.763 241.726 303.317 240.282C302.429 241.745 302.159 242.878 302.282 244.637C302.374 245.951 302.656 246.977 303.217 247.904C301.883 247.269 300.607 246.532 299.396 245.688C300.265 244.595 300.65 243.595 300.833 242.046C301.078 239.969 300.742 238.536 299.603 236.805C298.445 238.032 297.961 239.077 297.74 240.817C297.539 242.407 297.7 243.644 298.315 244.894C296.968 243.847 295.714 242.655 294.565 241.309C295.719 240.4 296.318 239.502 296.821 237.97C297.465 236 297.413 234.529 296.63 232.59C295.256 233.527 294.576 234.439 294.022 236.083C293.48 237.693 293.423 239 293.876 240.47C292.779 239.07 291.788 237.519 290.918 235.802C292.16 235.185 292.904 234.447 293.671 233.106C294.686 231.331 294.921 229.885 294.53 227.821C292.998 228.428 292.154 229.164 291.291 230.645C290.532 231.946 290.207 233.094 290.263 234.422C289.6 232.935 289.021 231.336 288.537 229.618C289.744 229.286 290.573 228.731 291.525 227.664C292.868 226.162 293.378 224.803 293.393 222.708C291.771 222.959 290.801 223.488 289.664 224.737C288.81 225.677 288.289 226.578 288.029 227.638C287.753 226.434 287.519 225.179 287.332 223.868C287.296 223.618 287.263 223.37 287.233 223.121C288.446 223.056 289.352 222.698 290.473 221.886C292.082 220.72 292.848 219.512 293.27 217.472C291.629 217.356 290.571 217.654 289.214 218.619C288.194 219.344 287.507 220.108 287.046 221.081C286.949 219.524 286.961 217.992 287.075 216.492C288.31 216.715 289.283 216.572 290.563 216.021C292.369 215.243 293.356 214.238 294.167 212.344C292.578 211.866 291.483 211.921 289.962 212.56C288.771 213.059 287.929 213.68 287.275 214.586C287.487 213.015 287.814 211.484 288.243 209.997C289.426 210.5 290.414 210.583 291.789 210.33C293.715 209.973 294.878 209.214 296.044 207.549C294.575 206.728 293.489 206.538 291.872 206.821C290.592 207.045 289.639 207.469 288.816 208.219C289.339 206.742 289.969 205.316 290.694 203.951C291.753 204.698 292.705 204.997 294.099 205.055C296.059 205.137 297.349 204.654 298.816 203.293C297.534 202.167 296.503 201.739 294.86 201.656C293.578 201.589 292.57 201.783 291.629 202.314C292.423 201.016 293.307 199.779 294.277 198.61C295.167 199.565 296.041 200.063 297.392 200.429C299.302 200.947 300.662 200.766 302.366 199.763C301.326 198.38 300.398 197.736 298.8 197.289C297.559 196.941 296.535 196.903 295.512 197.206C296.53 196.115 297.625 195.095 298.792 194.152C299.487 195.305 300.253 195.994 301.524 196.658C303.297 197.587 304.669 197.712 306.537 197.116C305.785 195.537 304.998 194.702 303.516 193.911C302.313 193.267 301.276 193.008 300.157 193.11C301.391 192.215 302.694 191.404 304.059 190.683C304.524 192.058 305.146 192.932 306.314 193.904C307.876 195.203 309.198 195.63 311.148 195.466C310.715 193.759 310.104 192.771 308.804 191.67C307.611 190.659 306.53 190.172 305.217 190.1C305.986 189.732 306.772 189.391 307.575 189.078L306.268 188.956C305.756 189.155 305.252 189.365 304.754 189.585C305.468 188.934 305.945 188.181 306.392 187.075C307.164 185.162 307.207 183.691 306.551 181.701C305.116 182.533 304.38 183.388 303.719 184.986C302.957 186.827 302.899 188.298 303.524 190.158C301.999 190.907 300.559 191.757 299.208 192.701C299.749 191.922 300.058 191.089 300.272 189.935C300.653 187.885 300.41 186.43 299.384 184.622C298.148 185.757 297.596 186.761 297.263 188.479C296.883 190.435 297.102 191.884 298.048 193.552C296.767 194.536 295.576 195.61 294.482 196.766C294.77 195.975 294.879 195.157 294.866 194.108C294.839 192.009 294.319 190.634 292.969 189.089C291.986 190.479 291.642 191.588 291.651 193.348C291.662 195.312 292.137 196.67 293.324 198.063C292.312 199.265 291.395 200.542 290.582 201.889C290.67 201.121 290.608 200.348 290.409 199.409C289.975 197.354 289.203 196.121 287.586 194.902C286.898 196.487 286.779 197.652 287.129 199.378C287.516 201.282 288.23 202.503 289.624 203.596C288.888 205.017 288.262 206.507 287.749 208.057C287.692 207.264 287.48 206.504 287.096 205.604C286.273 203.682 285.282 202.646 283.47 201.808C283.108 203.518 283.219 204.69 283.895 206.306C284.65 208.11 285.595 209.152 287.198 209.917C286.761 211.575 286.451 213.293 286.275 215.065C286.083 214.145 285.71 213.354 285.071 212.428C283.897 210.726 282.728 209.927 280.801 209.508C280.78 211.267 281.115 212.391 282.088 213.829C283.204 215.476 284.358 216.291 286.15 216.674C286.053 218.538 286.101 220.457 286.303 222.419C285.93 221.305 285.379 220.494 284.422 219.581C282.947 218.169 281.653 217.644 279.695 217.663C280.015 219.395 280.561 220.426 281.789 221.62C283.229 223.023 284.54 223.556 286.432 223.506C286.454 223.668 286.475 223.83 286.497 223.992C286.748 225.745 287.081 227.407 287.486 228.982C286.921 228.045 286.24 227.402 285.181 226.748C283.471 225.691 282.108 225.463 280.203 225.916C280.853 227.546 281.583 228.437 283.011 229.336C284.66 230.376 286.025 230.62 287.815 230.177C288.289 231.816 288.845 233.356 289.478 234.798C288.88 234.286 288.207 233.929 287.313 233.616C285.44 232.958 284.069 233.04 282.3 233.908C283.249 235.365 284.133 236.076 285.701 236.642C287.417 237.262 288.744 237.234 290.293 236.518C290.989 237.889 291.761 239.162 292.599 240.344C292.048 240.113 291.448 239.972 290.722 239.889C288.77 239.659 287.449 240.044 285.896 241.291C287.103 242.509 288.104 243.011 289.739 243.217C291.462 243.435 292.718 243.147 294.027 242.195C294.979 243.329 295.998 244.362 297.08 245.301C296.526 245.214 295.944 245.213 295.261 245.286C293.316 245.496 292.103 246.166 290.831 247.739C292.244 248.665 293.317 248.936 294.951 248.776C296.684 248.605 297.856 248.036 298.954 246.791C300.196 247.693 301.504 248.487 302.867 249.176C302.195 249.172 301.524 249.304 300.735 249.576C298.879 250.215 297.828 251.145 296.894 252.971C298.452 253.566 299.549 253.594 301.109 253.072C302.836 252.495 303.884 251.624 304.73 250.037C306.133 250.63 307.586 251.122 309.082 251.519C308.589 251.679 308.096 251.922 307.551 252.259C305.867 253.301 305.023 254.447 304.468 256.448C306.101 256.688 307.175 256.469 308.595 255.61C310.092 254.702 310.937 253.673 311.46 252.064C312.675 252.299 313.912 252.476 315.166 252.597C315.022 252.725 314.877 252.863 314.728 253.013C313.313 254.438 312.736 255.763 312.618 257.855C314.252 257.696 315.249 257.222 316.444 256.038C317.472 255.024 318.061 254.031 318.337 252.781C319.623 252.809 320.924 252.784 322.232 252.705C322.852 252.667 323.436 252.702 323.994 252.792C321.714 254.782 319.814 257.384 317.637 259.212L319.646 259.81C322.071 257.774 323.605 255.076 325.893 253.33C328.564 254.416 330.753 256.628 333.631 257.965L335.415 256.864C332.829 255.663 330.308 253.638 327.579 252.311C328.1 252.074 328.662 251.886 329.277 251.758C330.561 251.493 331.824 251.178 333.058 250.816C333.651 251.951 334.478 252.756 335.734 253.468C337.197 254.297 338.283 254.494 339.902 254.222C339.242 252.233 338.34 251.104 336.602 250.099C336.42 249.994 336.243 249.898 336.071 249.811C337.25 249.368 338.398 248.875 339.51 248.331C340.434 249.748 341.518 250.521 343.2 251.007C344.795 251.467 345.889 251.399 347.403 250.741C346.346 248.954 345.232 248.067 343.335 247.5C342.72 247.316 342.182 247.212 341.663 247.185C343.003 246.413 344.279 245.558 345.479 244.619C346.711 245.932 347.949 246.498 349.766 246.605C351.408 246.701 352.461 246.389 353.808 245.408C352.431 243.889 351.174 243.266 349.216 243.133C348.382 243.076 347.701 243.122 347.053 243.302C348.191 242.281 349.245 241.174 350.208 239.98C351.593 240.895 352.873 241.138 354.589 240.852C356.209 240.58 357.174 240.04 358.297 238.777C356.66 237.591 355.314 237.26 353.38 237.564C352.702 237.671 352.14 237.823 351.63 238.053C352.429 236.864 353.145 235.6 353.767 234.258C355.279 234.836 356.567 234.785 358.173 234.127C359.698 233.5 360.535 232.756 361.381 231.265C359.557 230.466 358.181 230.439 356.356 231.17C355.679 231.439 355.136 231.732 354.665 232.099C355.165 230.739 355.578 229.308 355.894 227.805C357.574 228.092 358.863 227.774 360.358 226.727C361.722 225.772 362.391 224.856 362.928 223.201C360.994 222.823 359.65 223.103 358.013 224.227L358.024 224.224Z" fill="#FCDF65"/>
<path d="M326.058 179.33L327.337 185.579L333.263 183.238L327.722 186.385L331.779 191.307L327.075 187.002L323.657 192.384L326.289 186.575L320.12 184.981L326.451 185.696L326.058 179.33Z" fill="white"/>
</g>
<defs>
<clipPath id="clip0_25_407">
<rect width="406.959" height="293.718" fill="white" transform="translate(0 53.5166) rotate(-7.55649)"/>
</clipPath>
</defs>
</svg>
